<svg xmlns="http://www.w3.org/2000/svg" version="1.1" xmlns:xlink="http://www.w3.org/1999/xlink" width="512" height="512" x="0" y="0" viewBox="0 0 512.02 512" style="enable-background:new 0 0 512 512" xml:space="preserve" class=""><g><path d="m471.727 365.305-98.555-22.75a45.366 45.366 0 0 0-32.68-25.797l-3.902-30.942a52.444 52.444 0 0 0 12.16-14.226 100.272 100.272 0 0 0 9.156-36.625c13.063-1.934 22.45-13.567 21.582-26.742a37.475 37.475 0 0 1 3.176-15.266c1.047-2.492 2.414-5.309 3.95-8.355 9.976-18.899 5.741-33.747-1.544-41.36a24.588 24.588 0 0 0-14.832-7.355c6.485-20.403 14.371-58.64-3.847-89.848C348.582 15.48 311.297.012 255.586.012c-55.715 0-93.016 15.468-110.809 45.984-18.242 31.25-10.324 69.547-3.832 89.926a24.635 24.635 0 0 0-14.086 7.379c-7.226 7.62-11.41 22.46-1.52 41.097 1.606 3.207 2.97 6.024 4.005 8.532a38.868 38.868 0 0 1 3.273 15.27 26.355 26.355 0 0 0 7.008 19.35 26.893 26.893 0 0 0 14.602 7.47 100.849 100.849 0 0 0 9.07 36.613 52.352 52.352 0 0 0 12.16 14.219l-3.926 30.906a45.36 45.36 0 0 0-32.707 25.797l-98.527 22.75a25.756 25.756 0 0 0-17.828 14.976A316.648 316.648 0 0 0 .012 494.473a16.551 16.551 0 0 0 4.718 12.18 17.69 17.69 0 0 0 12.688 5.359h477.184c4.777 0 9.351-1.934 12.683-5.36a16.569 16.569 0 0 0 4.727-12.136 317.153 317.153 0 0 0-22.453-114.235 25.78 25.78 0 0 0-17.832-14.976zM312.426 494.94h-15.551l-19.25-80.117a57.416 57.416 0 0 0 16.938-8.61c.921 1.708 1.769 3.278 2.511 4.763a12.705 12.705 0 0 0 11.383 7.132 12.85 12.85 0 0 0 9.242-3.968l39.492-41.618c-2.867 33-12.52 93.329-44.765 122.418zm-112.805 0c-32.21-29.078-41.89-89.445-44.773-122.433l39.527 41.66a12.814 12.814 0 0 0 9.191 3.977c.645 0 1.29-.055 1.926-.157a12.71 12.71 0 0 0 9.457-6.96 134.691 134.691 0 0 1 2.508-4.77 57.51 57.51 0 0 0 16.938 8.61l-19.258 80.128zM85.344 443.742c14.14 0 25.601 11.461 25.601 25.602 0 14.136-11.46 25.597-25.601 25.597-14.137 0-25.602-11.46-25.602-25.597 0-14.14 11.465-25.602 25.602-25.602zm8.535-16.21v-57.09l42.973-9.915c1.246 26.059 7.578 93.387 39.586 134.47h-57.243a42.216 42.216 0 0 0 8.817-25.653c-.028-20.27-14.282-37.73-34.133-41.813zm162.133-52.055a38.92 38.92 0 0 1 29.011 16.511 41.542 41.542 0 0 1-19.105 8.27 60.63 60.63 0 0 1-19.773 0 41.502 41.502 0 0 1-19.079-8.27 38.925 38.925 0 0 1 28.946-16.511zm-4.805 42.468c1.586.094 3.172.2 4.805.2 1.629 0 3.215-.106 4.804-.2l18.508 77.04H232.7zm105.691-69.886-47.375 49.945a94.433 94.433 0 0 0-20.726-26.324 69.384 69.384 0 0 0 49.68-37.88 28.69 28.69 0 0 1 18.421 14.259zM160.223 53.422c14.867-24.117 46.941-36.344 95.363-36.344 48.418 0 80.5 12.227 95.36 36.344a82.709 82.709 0 0 1 8.054 56.41c-5.7-18.047-15.207-38.047-30.719-47.555-7.5-4.66-17.32-2.761-22.547 4.352C301 73.07 288.242 83.883 256.02 83.883c-32.223 0-44.98-10.813-49.715-17.254-5.223-7.137-15.07-9.027-22.563-4.324-16.035 9.82-25.601 30.84-31.265 49.328a83.906 83.906 0 0 1 7.746-58.211zm10.71 173.738a8.534 8.534 0 0 0-8.535-8.535c-3.757.32-7.507-.75-10.527-3.012a10.002 10.002 0 0 1-2.187-7.117 56.086 56.086 0 0 0-4.59-22.187c-1.168-2.79-2.696-5.973-4.59-9.735-5.734-10.82-4.414-18.21-1.274-21.531a9.043 9.043 0 0 1 10.43-1.434c.211.09.426.168.649.23a8.703 8.703 0 0 0 2.832.743c.222 0 .437.121.656.121.223 0 .36-.101.547-.113a8.702 8.702 0 0 0 1.707-.313l.222-.07.196-.066c.32-.09.633-.2.937-.325a8.728 8.728 0 0 0 1.403-.914l.41-.324a4.185 4.185 0 0 0 1.781-2.074c.07-.11.145-.203.207-.316.18-.313.34-.637.477-.973a6.57 6.57 0 0 0 .238-.895c.148-.468.258-.949.324-1.433 1.887-15.653 10.93-58.149 30.258-70.164 6.648 9.054 23.723 24.226 63.473 24.226s56.859-15.172 63.386-24.14c18.285 11.195 27.383 49.496 29.969 66.988a8.412 8.412 0 0 0 3.856 9.71 8.334 8.334 0 0 0 4.09.981c.562.09 1.136.114 1.706.078h.246c.204 0 .375-.144.579-.187a8.225 8.225 0 0 0 1.98-.496A9.188 9.188 0 0 1 372.73 155c3.165 3.313 4.504 10.719-1.316 21.742-1.809 3.61-3.336 6.778-4.52 9.602a54.374 54.374 0 0 0-4.488 22.187 10.245 10.245 0 0 1-2.289 7.133 15.292 15.292 0 0 1-10.426 2.977 8.534 8.534 0 0 0-8.535 8.535 93.274 93.274 0 0 1-7.492 36.515c-3.867 7.344-17.562 17.766-35.61 27.133a23.864 23.864 0 0 0-7.937 6.258 48.3 48.3 0 0 1-34.105 18.66 48.182 48.182 0 0 1-33.957-18.558 23.794 23.794 0 0 0-7.934-6.34c-18.168-9.43-31.863-19.848-35.71-27.172a96.253 96.253 0 0 1-7.477-36.512zm35.438 78.89a7.13 7.13 0 0 1 2.484 1.954 65.144 65.144 0 0 0 47.157 24.805 65.259 65.259 0 0 0 47.281-24.957 7.298 7.298 0 0 1 2.477-1.864c4.265-2.191 9.566-5.18 15.043-8.633l3.32 26.34c-1.953 6.309-13.809 34.715-68.121 34.715-54.461 0-66.239-28.57-68.121-34.695l3.316-26.371c5.516 3.484 10.883 6.453 15.164 8.707zm-32.828 27.759a69.384 69.384 0 0 0 49.691 37.87 94.388 94.388 0 0 0-20.734 26.325l-47.379-49.945a28.745 28.745 0 0 1 18.422-14.25zM17.078 495.035c.371-37 7.52-73.62 21.086-108.047a8.525 8.525 0 0 1 5.973-5.05l32.676-7.543v53.136c-19.856 4.082-34.11 21.543-34.137 41.813a42.197 42.197 0 0 0 8.824 25.683zm318.531-.094c31.985-41.086 38.317-108.37 39.563-134.441l42.973 9.95v31.48c-19.852 4.082-34.11 21.547-34.133 41.812v17.067c0 9.425 7.64 17.066 17.066 17.066 4.711 0 8.531-3.82 8.531-8.531a8.533 8.533 0 0 0-8.53-8.535v-17.067c0-14.137 11.46-25.597 25.597-25.597 14.14 0 25.601 11.46 25.601 25.597v17.067a8.536 8.536 0 0 0-8.535 8.535c0 4.71 3.824 8.531 8.535 8.531 9.426 0 17.067-7.64 17.067-17.066v-17.067c-.024-20.265-14.281-37.73-34.133-41.812v-27.535l32.684 7.542a8.527 8.527 0 0 1 5.972 5.06 297.744 297.744 0 0 1 20.735 107.944zm0 0" fill="#565657" opacity="1" data-original="#565657" class=""></path></g></svg>
