<svg id="Layer_1" data-name="Layer 1" xmlns="http://www.w3.org/2000/svg" viewBox="0 0 841.89 479.39"><defs><style>.cls-1,.cls-3{fill:#f15a24;}.cls-2,.cls-5{fill:#29abe2;}.cls-3{font-size:48.78px;font-family:PakenhamKayo-Regular, Pakenham;}.cls-4{letter-spacing:-0.02em;}.cls-5{font-size:28.93px;font-family:Nexa-Heavy, Nexa;font-weight:800;letter-spacing:0.06em;}.cls-6{letter-spacing:0.04em;}.cls-7{letter-spacing:0.04em;}.cls-8{letter-spacing:0.06em;}.cls-9{letter-spacing:0.05em;}</style></defs><path class="cls-1" d="M125.33,345.52c-.1.6-.57.67-1,.71A1,1,0,0,1,125.33,345.52Z"/><path class="cls-1" d="M344.37,231.46l.1,0,0-.05Z"/><path class="cls-2" d="M319.31,331.68l1.6-4.51c0-.13.1-.26.14-.39q3.39-9.58,6.79-19.16Q309.55,319.07,292,332.11Z"/><path class="cls-1" d="M360.9,214.37c2.37-6.67,4.7-13.36,7.18-20.41-11.29,0-22.16.07-33-.05A9.45,9.45,0,0,0,329,196Q240.23,261,151.44,326.08c-8.77,6.43-17.45,13-26.17,19.46,4.26-.72,7.61-3.45,11.29-5.37,15.55-8.14,31-16.51,46.46-24.8l146.91-78.69c6.83-3.66,13.69-7.26,21.41-11.36a21.56,21.56,0,0,1-5,4.79c-.21,1.09-.52,2-1.9,1.39.62,1.59-1,1.91-1.68,2.57q-17.73,16.45-35.6,32.78a10.39,10.39,0,0,0-2.88,4.35c-6.49,18.43-13,36.86-19.64,55.24l-.23.67-1.85,5.15,2.68-.05a520.56,520.56,0,0,1,44.85-31Q345.5,257.76,360.9,214.37Z"/><path class="cls-2" d="M404.05,277.18l3.26,18.52H419.9L452.76,259l15.34-16.8c-21.5,7.32-43.6,15.85-65.72,25.8C403,271.08,403.5,274.13,404.05,277.18Z"/><path class="cls-2" d="M375.74,297.17l7.09-20c-12.62,6.18-25.19,12.82-37.6,20Z"/><path class="cls-2" d="M531.55,251.09a21.73,21.73,0,0,0,15.19,5.77c11.68-.14,23.36-.05,35,0,1.18,0,2.66-.46,3.41.75,1.9,3.08,1.5,6.49.64,9.7-.64,2.39-3.07,1.76-4.88,1.76-26.82,0-53.64,0-80.45.09-3.19,0-3.31-.78-2.33-3.44q6.81-18.48,13.54-37c-13.38,3.75-27.19,8-41.26,12.72a15,15,0,0,1-1,3q-8.56,23.65-17.17,47.3c-.68,1.86-1.21,2.89,1.7,2.88q70.11-.12,140.21-.06a19.34,19.34,0,0,0,10.45-2.93,35.77,35.77,0,0,0,12.92-47.05c-4.38-8.3-11-12.7-20.69-12.46-10.79.27-21.59.07-32.38,0-3.8,0-7.39-2.79-7.17-5.42.36-4.26,3.07-6.75,7.37-6.75,23.81,0,47.63,0,71.44.05,2.23,0,3.31-.53,4.05-2.75,1.74-5.2,3.57-10.37,5.53-15.49A905.66,905.66,0,0,0,521.53,226,29.26,29.26,0,0,0,531.55,251.09Z"/><path class="cls-1" d="M387.68,263.54h0l.73-2,8.45-23.25c1.58,8.54,3.14,16.88,4.67,25.11a786.07,786.07,0,0,1,112.23-40.28l8.52-23.45c.63-1.74,1.58-3.41,1.59-5.54-14,0-27.9.06-41.8,0a7.27,7.27,0,0,0-6,2.59q-20.68,22.68-41.59,45.19c-.7.75-1.12,2-2.51,2-3-15.65-6-31.26-8.91-46.88-.39-2.08-1.13-2.89-3.41-2.87q-20.19.18-40.39,0c-2,0-2.88.57-3.56,2.46Q358.39,244.3,340.91,292a3.36,3.36,0,0,0-.36,2l-.39,1.12c14.76-8.72,29.76-16.7,44.83-24Z"/><path class="cls-1" d="M645.16,194.06c-30.15.07-60.31.22-90.47-.07a27.46,27.46,0,0,0-20.82,8.69,50.75,50.75,0,0,0-9.15,12.66,31,31,0,0,0-2.13,5.34A903.2,903.2,0,0,1,647.8,196.5C648.51,194.28,647.55,194.05,645.16,194.06Z"/><path class="cls-2" d="M448.6,202.54A95.86,95.86,0,0,0,451,217.36l5.06-5.49q-.86-4.26-1.29-8.58a36.07,36.07,0,0,1-7.89-4.3A4.91,4.91,0,0,1,448.6,202.54Z"/><path class="cls-2" d="M516,157.41l.24.8-20.45,8.47c-.1-2.46-.17-4.31-.26-6.49l-6.21-.82c0,2.42.2,4.69.06,6.95-.05.74-.74,1.92-1.34,2.06-9.78,2.41-19.68,3.55-29.75,2.34a5.2,5.2,0,0,1-1-.35l4.37-12.92a33.59,33.59,0,0,0-5.32.08c-.69.1-1.49,1.12-1.78,1.9a96.65,96.65,0,0,0-6.26,30c0,.81-.11,1.62-.22,3.22-1-.89-2-1.74-3-2.57h0a42.28,42.28,0,0,0,9.28,6.75A97.91,97.91,0,0,1,456,176.66c11.5,1.46,22.63.3,33.94-2.33a146.23,146.23,0,0,0,2.26,15.35l6.59,0c-.92-5-1.63-10-2.52-15-.26-1.45.11-2.21,1.66-2.68a136.37,136.37,0,0,0,27-11.82,4,4,0,0,1,2-.51c-3.17-.71-8.89-2-12.18-2.55Z"/><path d="M529.1,160.16l.09,0h0Z"/><path d="M594.26,178.9c-.92-.34-2-.74-3.27-1.17Z"/><path class="cls-2" d="M575.94,172.84,546.7,189.68c-.49-.77-1-1.49-1.43-2.24-3.35-5.81-6.78-11.58-10-17.46-1.09-2-2.37-3.22-4.68-3.42a44.45,44.45,0,0,1-4.87-1l15.39,26.69a32.33,32.33,0,0,1,13.63-2.7l4.33,0,10.29-5.93c4.38-2.52,8.73-5.09,13.16-7.53a4,4,0,0,1,2.46-.48c-3.87-1.31-7.67-2.56-9.74-3.24Z"/><polygon points="573.65 171.91 573.66 171.91 573.65 171.91 573.65 171.91"/><path class="cls-1" d="M579.18,167.27q-15.76-4.31-31.5-8.69l-.17,0c-14.48-4-27.68-6.57-27.68-6.57h0c-13-1.91-25.88-4.14-38.88-5.64-14.32-1.66-28.77-2.14-43,.64a52.57,52.57,0,0,0-14,4.82c-6.3,3.26-8.17,8.69-5.85,14.8a36.93,36.93,0,0,0,3.7,7.28,92.57,92.57,0,0,0,24.35,24.5,7.33,7.33,0,0,1,.78.62,36.07,36.07,0,0,0,7.89,4.3c-.22-2.14-.33-4.29-.39-6.46a42.28,42.28,0,0,1-9.28-6.75h0c-2.6-2.23-5.05-4.3-7.34-6.53-5.52-5.38-10.71-11.06-13.83-18.27-1.48-3.4-1-5.31,2-7.53,4.25-3.16,9.28-4.28,14.36-5.09a138.51,138.51,0,0,1,36.38-.59c12.5,1.29,24.93,3.25,37.38,4.93.21,0,.42.08.63.12,3.29.58,9,1.84,12.18,2.55a1.86,1.86,0,0,1,.54.06l1.64.43.09,0h0q22.24,5.81,44.46,11.73h0l1.11.29a1.83,1.83,0,0,1,.47.23c2.07.68,5.87,1.93,9.74,3.24a1.17,1.17,0,0,1,.26,0c1.92.66,3.84,1.34,5.75,2,1.23.43,2.35.83,3.27,1.17,9,3.29,18,6.82,26.67,10.8l10.11,0h3.76a338.44,338.44,0,0,0-40.66-17.37l-.27-.11c-6.9-2.49-14.7-4.92-14.7-4.92Z"/><path class="cls-2" d="M562.79,98.17c-45.25-8.31-82.83,16.93-97.27,41,1.29.07,2.53,0,3.74.22,2.09.33,3.37-.47,4.81-2.08,4.18-4.67,8.6-9.14,13.11-13.5a79.83,79.83,0,0,1,7.14-5.52c-1.39,7.91-2.68,15.21-4,22.79l6.22.77c1.15-6.74,2.27-13.26,3.43-20,.63.44.8.5.87.62l10.82,18.72c2,3.51,5.09,4.93,9.53,4.25l-15.58-27a175.4,175.4,0,0,1,40.82,18.52,117.75,117.75,0,0,1-19.33,14.74,6.74,6.74,0,0,1-4.12.76l-3.13-.46h0s13.2,2.56,27.68,6.57l.17,0-12.63-3.5a7,7,0,0,1-.92-.45c3-2.28,5.9-4.4,8.7-6.64,2.52-2,5-4,7.35-6.28,1.27-1.22,2.13-1.15,3.33-.12,6.07,5.22,12.11,10.48,18.3,15.56a23.47,23.47,0,0,0,5.71,3.14c1.94.83,4,1.3,6.75,2.15a127.05,127.05,0,0,0-28-26.58c7.81-8.41,14.3-17.43,18.72-28.22a91,91,0,0,1,47.95,38c-.86.57-1.44,1-2.06,1.36Q603,157.32,585.12,167.56A4.63,4.63,0,0,1,582,168l-2.77-.76h0s7.8,2.43,14.7,4.92c-.76-.29-1.53-.63-2.49-1L626,151.23c.47.81.9,1.49,1.26,2.2a90.54,90.54,0,0,1,8.72,28.08,3.68,3.68,0,0,0,1,2.36,58.22,58.22,0,0,0,5.52,2.94C640.35,148.21,611.54,107.13,562.79,98.17Zm-11.72,34.21a192.35,192.35,0,0,0-44.82-20.53c20.16-9.63,41-11.58,62.84-6C564.89,116.07,558.62,124.53,551.07,132.38Z"/><text class="cls-3" transform="translate(322.78 331.97)">A<tspan class="cls-4" x="40.24" y="0">L</tspan><tspan x="70.38" y="0">GHURABI </tspan></text><text class="cls-5" transform="translate(202.11 362.35)">MANP<tspan class="cls-6" x="99.11" y="0">O</tspan><tspan x="124.22" y="0">WER SE</tspan><tspan class="cls-7" x="251.96" y="0">R</tspan><tspan class="cls-8" x="274.21" y="0">VICES L</tspan><tspan class="cls-9" x="399.99" y="0">L</tspan><tspan class="cls-8" x="419.02" y="0">C</tspan></text><path class="cls-2" d="M329.93,236.68,183,315.37c-15.48,8.29-30.91,16.66-46.46,24.8-3.66,1.91-7,4.62-11.23,5.36-.11.59-.57.66-1,.7a9.06,9.06,0,0,0-3.6,2.61c.94.06,1.36.12,1.78.12,18.9,0,37.8,0,56.7,0a7.27,7.27,0,0,0,4.53-1.67q23-16.65,45.95-33.28l54.88-6.43,10.25-22.44L263,289.9Q302,261.61,341.1,233.32c1-.73,1.8-1.94,3.27-1.87.2-1.13,1-1.33,2-1.34a21.38,21.38,0,0,0,5-4.79C343.62,229.42,336.76,233,329.93,236.68Z"/><path class="cls-2" d="M344.45,231.45h0Z"/><path class="cls-2" d="M125.27,345.54h.06Z"/></svg>