<svg width="528" height="276" viewBox="0 0 528 276" fill="none" xmlns="http://www.w3.org/2000/svg">
<path d="M223.66 134.907H223.76V134.857L223.66 134.907Z" fill="#F15A24"/>
<path d="M198.6 235.127L200.2 230.617C200.2 230.487 200.3 230.357 200.34 230.227C202.6 223.84 204.863 217.454 207.13 211.067C194.937 218.7 182.99 226.864 171.29 235.557L198.6 235.127Z" fill="#0B92CB"/>
<path d="M240.19 117.817C242.56 111.147 244.89 104.457 247.37 97.407C236.08 97.407 225.21 97.477 214.37 97.357C212.161 97.3217 210.01 98.0612 208.29 99.447C149.11 142.78 89.9233 186.14 30.73 229.527C21.96 235.957 13.28 242.527 4.56 248.987C8.82 248.267 12.17 245.537 15.85 243.617C31.4 235.477 46.85 227.107 62.31 218.817L209.22 140.127C216.05 136.467 222.91 132.867 230.63 128.767C229.232 130.623 227.544 132.24 225.63 133.557C225.42 134.647 225.11 135.557 223.73 134.947C224.35 136.537 222.73 136.857 222.05 137.517C210.23 148.484 198.363 159.41 186.45 170.297C185.136 171.479 184.144 172.976 183.57 174.647C177.08 193.077 170.57 211.507 163.93 229.887L163.7 230.557L161.85 235.707L164.53 235.657C178.928 224.547 193.899 214.2 209.38 204.657C219.653 175.69 229.923 146.744 240.19 117.817Z" fill="#F15A24"/>
<path d="M283.34 180.627L286.6 199.147H299.19L332.05 162.447L347.39 145.647C325.89 152.967 303.79 161.497 281.67 171.447C282.29 174.527 282.79 177.577 283.34 180.627Z" fill="#0B92CB"/>
<path d="M255.03 200.617L262.12 180.617C249.5 186.797 236.93 193.437 224.52 200.617H255.03Z" fill="#0B92CB"/>
<path d="M410.84 154.537C414.967 158.352 420.411 160.42 426.03 160.307C437.71 160.167 449.39 160.257 461.03 160.307C462.21 160.307 463.69 159.847 464.44 161.057C466.34 164.137 465.94 167.547 465.08 170.757C464.44 173.147 462.01 172.517 460.2 172.517C433.38 172.517 406.56 172.517 379.75 172.607C376.56 172.607 376.44 171.827 377.42 169.167C381.96 156.847 386.473 144.514 390.96 132.167C377.58 135.917 363.77 140.167 349.7 144.887C349.473 145.919 349.138 146.925 348.7 147.887C342.993 163.654 337.27 179.42 331.53 195.187C330.85 197.047 330.32 198.077 333.23 198.067C379.97 197.987 426.707 197.967 473.44 198.007C477.132 198.048 480.758 197.031 483.89 195.077C491.599 190.326 497.219 182.829 499.617 174.097C502.015 165.365 501.012 156.048 496.81 148.027C492.43 139.727 485.81 135.327 476.12 135.567C465.33 135.837 454.53 135.637 443.74 135.567C439.94 135.567 436.35 132.777 436.57 130.147C436.93 125.887 439.64 123.397 443.94 123.397C467.75 123.397 491.57 123.397 515.38 123.447C517.61 123.447 518.69 122.917 519.43 120.697C521.17 115.497 523 110.327 524.96 105.207C483.066 110.384 441.585 118.484 400.82 129.447C400.351 134.127 401.017 138.85 402.761 143.218C404.505 147.585 407.276 151.468 410.84 154.537Z" fill="#0B92CB"/>
<path d="M266.97 166.987L267.7 164.987L276.15 141.737C277.73 150.277 279.29 158.617 280.82 166.847C317.156 150.598 354.674 137.133 393.05 126.567L401.57 103.117C402.2 101.377 403.15 99.7071 403.16 97.5771C389.16 97.5771 375.26 97.6371 361.36 97.5771C360.227 97.5106 359.094 97.7101 358.053 98.1599C357.011 98.6096 356.089 99.297 355.36 100.167C341.573 115.287 327.71 130.35 313.77 145.357C313.07 146.107 312.65 147.357 311.26 147.357C308.26 131.707 305.26 116.097 302.35 100.477C301.96 98.3971 301.22 97.5871 298.94 97.6071C285.48 97.7271 272.017 97.7271 258.55 97.6071C256.55 97.6071 255.67 98.1771 254.99 100.067C243.45 131.854 231.853 163.647 220.2 195.447C219.876 196.061 219.751 196.759 219.84 197.447L219.45 198.567C234.21 189.847 249.21 181.867 264.28 174.567L266.97 166.987Z" fill="#F15A24"/>
<path d="M524.45 97.507C494.3 97.577 464.14 97.727 433.98 97.437C430.092 97.3284 426.226 98.047 422.636 99.5451C419.047 101.043 415.817 103.287 413.16 106.127C409.475 109.849 406.388 114.12 404.01 118.787C403.136 120.497 402.423 122.285 401.88 124.127C442.995 113.127 484.836 105.047 527.09 99.947C527.8 97.727 526.84 97.497 524.45 97.507Z" fill="#F15A24"/>
<path d="M327.89 105.987C328.301 110.982 329.104 115.937 330.29 120.807L335.35 115.317C334.777 112.477 334.347 109.617 334.06 106.737C331.261 105.638 328.611 104.194 326.17 102.437C326.687 102.878 327.106 103.421 327.402 104.032C327.698 104.643 327.864 105.309 327.89 105.987Z" fill="#0B92CB"/>
<path d="M395.29 60.857L395.53 61.657L375.08 70.127C374.98 67.667 374.91 65.817 374.82 63.637L368.61 62.817C368.61 65.237 368.81 67.507 368.67 69.767C368.62 70.507 367.93 71.687 367.33 71.827C357.55 74.237 347.65 75.377 337.58 74.167C337.236 74.0847 336.901 73.9674 336.58 73.817L340.95 60.897C339.177 60.783 337.398 60.8097 335.63 60.977C334.94 61.077 334.14 62.097 333.85 62.877C330.181 72.4804 328.068 82.6077 327.59 92.877C327.59 93.687 327.48 94.497 327.37 96.097C326.37 95.207 325.37 94.357 324.37 93.527C327.142 96.1883 330.264 98.4592 333.65 100.277C333.499 93.5151 334.048 86.7557 335.29 80.107C346.79 81.567 357.92 80.407 369.23 77.777C369.711 82.9301 370.466 88.0539 371.49 93.127H378.08C377.16 88.127 376.45 83.127 375.56 78.127C375.3 76.677 375.67 75.917 377.22 75.447C386.621 72.494 395.673 68.5309 404.22 63.627C404.831 63.285 405.52 63.1091 406.22 63.117C403.05 62.407 397.33 61.117 394.04 60.567L395.29 60.857Z" fill="#0B92CB"/>
<path d="M473.55 82.347C472.63 82.007 471.55 81.607 470.28 81.177L473.55 82.347Z" fill="black"/>
<path d="M455.23 76.2871L425.99 93.1271C425.5 92.3571 424.99 91.6371 424.56 90.8871C421.21 85.0771 417.78 79.3071 414.56 73.4271C413.47 71.4271 412.19 70.2071 409.88 70.0071C408.239 69.7649 406.613 69.431 405.01 69.0071L420.4 95.6971C424.694 93.8199 429.345 92.8986 434.03 92.9971H438.36L448.65 87.0671C453.03 84.5471 457.38 81.9771 461.81 79.5371C462.557 79.1177 463.42 78.9494 464.27 79.0571C460.4 77.7471 456.6 76.4971 454.53 75.8171L455.23 76.2871Z" fill="#0B92CB"/>
<path d="M458.47 70.717C447.963 67.8437 437.463 64.947 426.97 62.027H426.8C412.32 58.027 399.12 55.457 399.12 55.457C386.12 53.547 373.24 51.317 360.24 49.817C345.92 48.157 331.47 47.677 317.24 50.457C312.369 51.3951 307.656 53.0179 303.24 55.277C296.94 58.537 295.07 63.967 297.39 70.077C298.35 72.633 299.591 75.0746 301.09 77.357C307.598 86.9791 315.858 95.2904 325.44 101.857C325.714 102.046 325.974 102.253 326.22 102.477C328.66 104.234 331.311 105.678 334.11 106.777C333.89 104.637 333.78 102.487 333.72 100.317C330.334 98.4992 327.212 96.2283 324.44 93.567C321.84 91.337 319.39 89.267 317.1 87.037C311.58 81.657 306.39 75.977 303.27 68.767C301.79 65.367 302.27 63.457 305.27 61.237C309.52 58.077 314.55 56.957 319.63 56.147C331.678 54.3515 343.91 54.1531 356.01 55.557C368.51 56.847 380.94 58.807 393.39 60.487C393.6 60.487 393.81 60.567 394.02 60.607C397.31 61.187 403.02 62.447 406.2 63.157C406.382 63.1504 406.564 63.1707 406.74 63.217L408.38 63.647H408.47C423.297 67.5203 438.117 71.4303 452.93 75.377L454.04 75.667C454.207 75.7207 454.365 75.7982 454.51 75.897C456.58 76.577 460.38 77.827 464.25 79.137C464.336 79.1273 464.424 79.1273 464.51 79.137C466.43 79.797 468.35 80.477 470.26 81.137C471.49 81.567 472.61 81.967 473.53 82.307C482.53 85.597 491.53 89.127 500.2 93.107H510.31H514.07C500.91 86.4369 487.327 80.6345 473.41 75.737L473.14 75.627C466.24 73.137 458.44 70.707 458.44 70.707L458.47 70.717Z" fill="#F15A24"/>
<path d="M442.08 1.61698C396.83 -6.69302 359.25 18.547 344.81 42.617C346.1 42.687 347.34 42.617 348.55 42.837C350.64 43.167 351.92 42.367 353.36 40.757C357.54 36.087 361.96 31.617 366.47 27.257C368.744 25.2838 371.128 23.4409 373.61 21.737C372.22 29.647 370.93 36.947 369.61 44.527L375.83 45.297C376.98 38.557 378.1 32.037 379.26 25.297C379.89 25.737 380.06 25.797 380.13 25.917L390.95 44.637C392.95 48.147 396.04 49.567 400.48 48.887L384.9 21.887C399.243 26.2891 412.961 32.5133 425.72 40.407C419.802 45.974 413.325 50.9137 406.39 55.147C405.132 55.8315 403.689 56.0977 402.27 55.907L399.14 55.447C399.14 55.447 412.34 58.007 426.82 62.017H426.99L414.36 58.517C414.043 58.3897 413.735 58.2392 413.44 58.067C416.44 55.787 419.34 53.667 422.14 51.427C424.66 49.427 427.14 47.427 429.49 45.147C430.76 43.927 431.62 43.997 432.82 45.027C438.89 50.247 444.93 55.507 451.12 60.587C452.868 61.8941 454.79 62.9509 456.83 63.727C458.77 64.557 460.83 65.027 463.58 65.877C455.655 55.6424 446.213 46.6789 435.58 39.297C443.39 30.887 449.88 21.867 454.3 11.077C474.19 17.83 491.131 31.2559 502.25 49.077C501.39 49.647 500.81 50.077 500.19 50.437C488.257 57.3237 476.33 64.1803 464.41 71.007C463.453 71.5139 462.349 71.6696 461.29 71.447L458.52 70.687C458.52 70.687 466.32 73.117 473.22 75.607C472.46 75.317 471.69 74.977 470.73 74.607L505.29 54.677C505.76 55.487 506.19 56.167 506.55 56.877C510.967 65.6993 513.913 75.1844 515.27 84.957C515.31 85.8381 515.665 86.6756 516.27 87.317C518.056 88.3952 519.899 89.3766 521.79 90.257C519.64 51.657 490.83 10.577 442.08 1.61698ZM430.36 35.827C416.362 27.0895 401.299 20.1895 385.54 15.297C405.7 5.66698 426.54 3.71698 448.38 9.29698C444.18 19.517 437.91 27.977 430.36 35.827Z" fill="#0B92CB"/>
<path d="M208.964 236.637H203.283L216.049 201.161H222.233L235 236.637H229.318L219.289 207.605H219.011L208.964 236.637ZM209.917 222.744H228.348V227.248H209.917V222.744ZM240.123 236.637V201.161H245.476V232.029H261.551V236.637H240.123ZM290.285 212.368C289.95 211.317 289.499 210.376 288.933 209.545C288.379 208.702 287.715 207.986 286.941 207.397C286.168 206.796 285.284 206.34 284.291 206.028C283.309 205.716 282.23 205.561 281.052 205.561C279.054 205.561 277.252 206.074 275.647 207.102C274.042 208.13 272.772 209.637 271.836 211.623C270.912 213.598 270.45 216.017 270.45 218.881C270.45 221.757 270.918 224.188 271.853 226.174C272.789 228.161 274.071 229.668 275.699 230.695C277.327 231.723 279.181 232.237 281.26 232.237C283.188 232.237 284.868 231.844 286.3 231.059C287.744 230.274 288.858 229.165 289.644 227.733C290.44 226.29 290.839 224.592 290.839 222.64L292.225 222.9H282.074V218.483H296.018V222.519C296.018 225.499 295.383 228.085 294.113 230.28C292.854 232.462 291.11 234.148 288.881 235.338C286.664 236.527 284.124 237.122 281.26 237.122C278.049 237.122 275.231 236.383 272.806 234.905C270.393 233.427 268.51 231.331 267.159 228.617C265.808 225.891 265.132 222.658 265.132 218.916C265.132 216.087 265.525 213.546 266.31 211.294C267.096 209.042 268.198 207.131 269.619 205.561C271.051 203.978 272.731 202.772 274.66 201.94C276.6 201.097 278.719 200.676 281.017 200.676C282.934 200.676 284.718 200.959 286.37 201.524C288.033 202.09 289.511 202.893 290.804 203.932C292.109 204.972 293.189 206.207 294.044 207.639C294.898 209.06 295.476 210.636 295.776 212.368H290.285ZM302.813 236.637V201.161H308.166V216.578H325.852V201.161H331.222V236.637H325.852V221.168H308.166V236.637H302.813ZM361.831 201.161H367.201V224.494C367.201 226.977 366.617 229.177 365.451 231.094C364.285 232.999 362.645 234.501 360.531 235.598C358.418 236.683 355.941 237.226 353.1 237.226C350.271 237.226 347.799 236.683 345.686 235.598C343.573 234.501 341.933 232.999 340.766 231.094C339.6 229.177 339.017 226.977 339.017 224.494V201.161H344.37V224.061C344.37 225.666 344.722 227.092 345.426 228.34C346.142 229.587 347.153 230.568 348.458 231.284C349.763 231.989 351.31 232.341 353.1 232.341C354.902 232.341 356.455 231.989 357.76 231.284C359.076 230.568 360.081 229.587 360.774 228.34C361.478 227.092 361.831 225.666 361.831 224.061V201.161ZM374.983 236.637V201.161H387.628C390.377 201.161 392.657 201.634 394.47 202.581C396.295 203.528 397.658 204.839 398.558 206.513C399.459 208.176 399.91 210.099 399.91 212.282C399.91 214.453 399.453 216.364 398.541 218.015C397.64 219.655 396.278 220.931 394.453 221.844C392.64 222.756 390.359 223.212 387.611 223.212H378.031V218.604H387.126C388.858 218.604 390.267 218.356 391.352 217.859C392.449 217.363 393.252 216.641 393.76 215.694C394.268 214.747 394.522 213.61 394.522 212.282C394.522 210.942 394.263 209.781 393.743 208.8C393.235 207.818 392.432 207.068 391.335 206.548C390.249 206.017 388.823 205.751 387.056 205.751H380.335V236.637H374.983ZM392.496 220.631L401.261 236.637H395.163L386.571 220.631H392.496ZM409.42 236.637H403.738L416.505 201.161H422.689L435.455 236.637H429.774L419.744 207.605H419.467L409.42 236.637ZM410.372 222.744H428.803V227.248H410.372V222.744ZM440.578 236.637V201.161H453.57C456.088 201.161 458.172 201.576 459.824 202.408C461.475 203.228 462.711 204.342 463.531 205.751C464.351 207.148 464.761 208.725 464.761 210.48C464.761 211.958 464.489 213.205 463.946 214.222C463.404 215.226 462.676 216.035 461.764 216.647C460.863 217.247 459.87 217.686 458.784 217.963V218.31C459.962 218.368 461.111 218.749 462.231 219.453C463.363 220.146 464.299 221.133 465.038 222.415C465.777 223.697 466.146 225.256 466.146 227.092C466.146 228.905 465.719 230.534 464.864 231.977C464.021 233.409 462.716 234.547 460.95 235.39C459.183 236.221 456.925 236.637 454.176 236.637H440.578ZM445.931 232.047H453.657C456.221 232.047 458.057 231.55 459.165 230.557C460.274 229.564 460.828 228.322 460.828 226.832C460.828 225.712 460.545 224.684 459.98 223.749C459.414 222.814 458.605 222.069 457.554 221.514C456.515 220.96 455.279 220.683 453.847 220.683H445.931V232.047ZM445.931 216.508H453.103C454.304 216.508 455.383 216.277 456.342 215.815C457.312 215.353 458.08 214.707 458.646 213.875C459.223 213.032 459.512 212.039 459.512 210.896C459.512 209.429 458.998 208.199 457.97 207.206C456.942 206.213 455.366 205.716 453.241 205.716H445.931V216.508ZM477.848 201.161V236.637H472.495V201.161H477.848Z" fill="#F15A24"/>
<path d="M83.7115 247.827H87.5641L94.2623 264.182H94.5089L101.207 247.827H105.06V268.867H102.039V253.642H101.844L95.639 268.836H93.1323L86.9271 253.632H86.7319V268.867H83.7115V247.827ZM111.452 268.867H108.083L115.654 247.827H119.322L126.893 268.867H123.524L117.575 251.649H117.411L111.452 268.867ZM112.017 260.628H122.948V263.299H112.017V260.628ZM146.914 247.827V268.867H143.996L133.301 253.436H133.106V268.867H129.932V247.827H132.87L143.575 263.278H143.77V247.827H146.914ZM151.544 268.867V247.827H159.044C160.681 247.827 162.037 248.125 163.112 248.721C164.188 249.317 164.992 250.132 165.527 251.166C166.061 252.193 166.328 253.351 166.328 254.638C166.328 255.933 166.057 257.097 165.516 258.131C164.982 259.159 164.174 259.974 163.092 260.576C162.017 261.172 160.664 261.47 159.034 261.47H153.877V258.779H158.746C159.78 258.779 160.619 258.6 161.263 258.244C161.907 257.881 162.38 257.388 162.681 256.765C162.982 256.142 163.133 255.433 163.133 254.638C163.133 253.844 162.982 253.138 162.681 252.522C162.38 251.906 161.904 251.423 161.253 251.073C160.609 250.724 159.76 250.55 158.705 250.55H154.719V268.867H151.544ZM188.326 258.347C188.326 260.594 187.915 262.525 187.093 264.141C186.271 265.751 185.145 266.99 183.713 267.86C182.289 268.723 180.669 269.155 178.854 269.155C177.032 269.155 175.405 268.723 173.974 267.86C172.549 266.99 171.426 265.747 170.604 264.131C169.782 262.515 169.371 260.587 169.371 258.347C169.371 256.101 169.782 254.173 170.604 252.563C171.426 250.947 172.549 249.707 173.974 248.844C175.405 247.974 177.032 247.539 178.854 247.539C180.669 247.539 182.289 247.974 183.713 248.844C185.145 249.707 186.271 250.947 187.093 252.563C187.915 254.173 188.326 256.101 188.326 258.347ZM185.182 258.347C185.182 256.635 184.905 255.193 184.35 254.022C183.802 252.844 183.049 251.954 182.09 251.351C181.138 250.741 180.059 250.437 178.854 250.437C177.642 250.437 176.559 250.741 175.607 251.351C174.655 251.954 173.902 252.844 173.347 254.022C172.799 255.193 172.525 256.635 172.525 258.347C172.525 260.059 172.799 261.504 173.347 262.682C173.902 263.854 174.655 264.744 175.607 265.354C176.559 265.956 177.642 266.258 178.854 266.258C180.059 266.258 181.138 265.956 182.09 265.354C183.049 264.744 183.802 263.854 184.35 262.682C184.905 261.504 185.182 260.059 185.182 258.347ZM196.149 268.867L190.314 247.827H193.653L197.752 264.121H197.947L202.21 247.827H205.519L209.782 264.131H209.977L214.066 247.827H217.415L211.57 268.867H208.375L203.947 253.108H203.782L199.354 268.867H196.149ZM220.31 268.867V247.827H233.501V250.56H223.484V256.97H232.812V259.693H223.484V266.134H233.624V268.867H220.31ZM237.741 268.867V247.827H245.241C246.871 247.827 248.224 248.108 249.299 248.669C250.381 249.231 251.189 250.008 251.723 251.002C252.258 251.988 252.525 253.128 252.525 254.423C252.525 255.71 252.254 256.844 251.713 257.823C251.179 258.796 250.371 259.552 249.289 260.094C248.213 260.635 246.861 260.905 245.231 260.905H239.549V258.172H244.943C245.97 258.172 246.806 258.025 247.45 257.731C248.1 257.436 248.576 257.008 248.878 256.446C249.179 255.885 249.33 255.21 249.33 254.423C249.33 253.628 249.176 252.94 248.867 252.358C248.566 251.775 248.09 251.33 247.439 251.022C246.795 250.707 245.95 250.55 244.902 250.55H240.916V268.867H237.741ZM248.128 259.374L253.326 268.867H249.71L244.614 259.374H248.128ZM275.519 253.354C275.41 252.382 274.958 251.628 274.163 251.094C273.369 250.553 272.369 250.282 271.163 250.282C270.3 250.282 269.554 250.419 268.924 250.693C268.294 250.96 267.804 251.33 267.455 251.803C267.112 252.269 266.941 252.799 266.941 253.395C266.941 253.895 267.057 254.327 267.29 254.69C267.53 255.053 267.841 255.357 268.225 255.604C268.615 255.844 269.033 256.046 269.478 256.21C269.924 256.368 270.352 256.498 270.763 256.601L272.817 257.135C273.488 257.299 274.177 257.522 274.882 257.803C275.588 258.083 276.242 258.453 276.844 258.912C277.447 259.371 277.933 259.939 278.303 260.617C278.68 261.296 278.868 262.107 278.868 263.052C278.868 264.244 278.56 265.302 277.944 266.227C277.334 267.151 276.447 267.881 275.283 268.415C274.125 268.949 272.725 269.216 271.081 269.216C269.506 269.216 268.143 268.966 266.992 268.466C265.842 267.966 264.941 267.258 264.29 266.34C263.64 265.415 263.28 264.319 263.212 263.052H266.396C266.458 263.813 266.705 264.446 267.136 264.953C267.574 265.453 268.133 265.826 268.811 266.073C269.496 266.312 270.245 266.432 271.06 266.432C271.958 266.432 272.756 266.292 273.454 266.011C274.16 265.723 274.714 265.326 275.119 264.819C275.523 264.306 275.725 263.706 275.725 263.021C275.725 262.398 275.547 261.888 275.19 261.491C274.841 261.093 274.365 260.765 273.762 260.504C273.167 260.244 272.492 260.015 271.739 259.816L269.252 259.138C267.568 258.679 266.232 258.005 265.246 257.114C264.266 256.224 263.777 255.046 263.777 253.58C263.777 252.368 264.105 251.31 264.763 250.406C265.42 249.502 266.311 248.8 267.434 248.3C268.557 247.793 269.824 247.539 271.235 247.539C272.66 247.539 273.917 247.789 275.005 248.289C276.101 248.789 276.964 249.478 277.594 250.354C278.225 251.224 278.553 252.224 278.581 253.354H275.519ZM282.662 268.867V247.827H295.853V250.56H285.836V256.97H295.165V259.693H285.836V266.134H295.976V268.867H282.662ZM300.093 268.867V247.827H307.593C309.223 247.827 310.576 248.108 311.651 248.669C312.733 249.231 313.541 250.008 314.075 251.002C314.61 251.988 314.877 253.128 314.877 254.423C314.877 255.71 314.606 256.844 314.065 257.823C313.531 258.796 312.723 259.552 311.641 260.094C310.565 260.635 309.213 260.905 307.583 260.905H301.901V258.172H307.295C308.322 258.172 309.158 258.025 309.802 257.731C310.452 257.436 310.928 257.008 311.23 256.446C311.531 255.885 311.682 255.21 311.682 254.423C311.682 253.628 311.528 252.94 311.219 252.358C310.918 251.775 310.442 251.33 309.791 251.022C309.148 250.707 308.302 250.55 307.254 250.55H303.268V268.867H300.093ZM310.48 259.374L315.678 268.867H312.062L306.966 259.374H310.48ZM320.07 247.827L325.926 264.963H326.162L332.018 247.827H335.449L327.878 268.867H324.21L316.639 247.827H320.07ZM341.662 247.827V268.867H338.488V247.827H341.662ZM363.76 254.669H360.555C360.432 253.984 360.202 253.382 359.867 252.861C359.531 252.341 359.12 251.899 358.634 251.536C358.148 251.173 357.603 250.899 357 250.714C356.405 250.529 355.771 250.437 355.1 250.437C353.888 250.437 352.802 250.741 351.843 251.351C350.891 251.96 350.138 252.854 349.583 254.032C349.035 255.21 348.761 256.649 348.761 258.347C348.761 260.059 349.035 261.504 349.583 262.682C350.138 263.86 350.895 264.751 351.853 265.354C352.812 265.956 353.891 266.258 355.09 266.258C355.754 266.258 356.384 266.169 356.98 265.991C357.583 265.806 358.127 265.535 358.613 265.179C359.1 264.823 359.511 264.388 359.846 263.874C360.189 263.354 360.425 262.758 360.555 262.087L363.76 262.097C363.589 263.131 363.257 264.083 362.764 264.953C362.278 265.816 361.651 266.562 360.884 267.192C360.124 267.816 359.254 268.299 358.274 268.641C357.295 268.983 356.226 269.155 355.069 269.155C353.247 269.155 351.624 268.723 350.199 267.86C348.775 266.99 347.652 265.747 346.83 264.131C346.015 262.515 345.607 260.587 345.607 258.347C345.607 256.101 346.018 254.173 346.84 252.563C347.662 250.947 348.785 249.707 350.21 248.844C351.634 247.974 353.254 247.539 355.069 247.539C356.185 247.539 357.226 247.7 358.192 248.022C359.165 248.337 360.038 248.803 360.812 249.419C361.586 250.029 362.226 250.776 362.733 251.659C363.24 252.536 363.582 253.539 363.76 254.669ZM367.559 268.867V247.827H380.75V250.56H370.733V256.97H380.062V259.693H370.733V266.134H380.873V268.867H367.559ZM396.466 253.354C396.356 252.382 395.904 251.628 395.11 251.094C394.315 250.553 393.315 250.282 392.11 250.282C391.247 250.282 390.5 250.419 389.87 250.693C389.24 250.96 388.75 251.33 388.401 251.803C388.059 252.269 387.887 252.799 387.887 253.395C387.887 253.895 388.004 254.327 388.237 254.69C388.476 255.053 388.788 255.357 389.172 255.604C389.562 255.844 389.98 256.046 390.425 256.21C390.87 256.368 391.298 256.498 391.709 256.601L393.764 257.135C394.435 257.299 395.123 257.522 395.829 257.803C396.534 258.083 397.188 258.453 397.791 258.912C398.394 259.371 398.88 259.939 399.25 260.617C399.627 261.296 399.815 262.107 399.815 263.052C399.815 264.244 399.507 265.302 398.89 266.227C398.281 267.151 397.394 267.881 396.23 268.415C395.072 268.949 393.671 269.216 392.028 269.216C390.452 269.216 389.089 268.966 387.939 268.466C386.788 267.966 385.888 267.258 385.237 266.34C384.586 265.415 384.227 264.319 384.158 263.052H387.343C387.405 263.813 387.651 264.446 388.083 264.953C388.521 265.453 389.079 265.826 389.757 266.073C390.442 266.312 391.192 266.432 392.007 266.432C392.904 266.432 393.702 266.292 394.401 266.011C395.106 265.723 395.661 265.326 396.065 264.819C396.469 264.306 396.671 263.706 396.671 263.021C396.671 262.398 396.493 261.888 396.137 261.491C395.788 261.093 395.312 260.765 394.709 260.504C394.113 260.244 393.439 260.015 392.685 259.816L390.199 259.138C388.514 258.679 387.179 258.005 386.192 257.114C385.213 256.224 384.723 255.046 384.723 253.58C384.723 252.368 385.052 251.31 385.71 250.406C386.367 249.502 387.257 248.8 388.381 248.3C389.504 247.793 390.771 247.539 392.182 247.539C393.606 247.539 394.863 247.789 395.952 248.289C397.048 248.789 397.911 249.478 398.541 250.354C399.171 251.224 399.5 252.224 399.527 253.354H396.466ZM411.265 268.867V247.827H414.439V266.134H423.973V268.867H411.265ZM427.594 268.867V247.827H430.769V266.134H440.303V268.867H427.594ZM460.58 254.669H457.374C457.251 253.984 457.022 253.382 456.686 252.861C456.351 252.341 455.94 251.899 455.453 251.536C454.967 251.173 454.423 250.899 453.82 250.714C453.224 250.529 452.59 250.437 451.919 250.437C450.707 250.437 449.621 250.741 448.663 251.351C447.711 251.96 446.957 252.854 446.402 254.032C445.854 255.21 445.581 256.649 445.581 258.347C445.581 260.059 445.854 261.504 446.402 262.682C446.957 263.86 447.714 264.751 448.673 265.354C449.632 265.956 450.71 266.258 451.909 266.258C452.573 266.258 453.203 266.169 453.799 265.991C454.402 265.806 454.946 265.535 455.433 265.179C455.919 264.823 456.33 264.388 456.666 263.874C457.008 263.354 457.244 262.758 457.374 262.087L460.58 262.097C460.409 263.131 460.076 264.083 459.583 264.953C459.097 265.816 458.47 266.562 457.703 267.192C456.943 267.816 456.073 268.299 455.094 268.641C454.114 268.983 453.046 269.155 451.888 269.155C450.067 269.155 448.443 268.723 447.019 267.86C445.594 266.99 444.471 265.747 443.649 264.131C442.834 262.515 442.427 260.587 442.427 258.347C442.427 256.101 442.838 254.173 443.659 252.563C444.481 250.947 445.604 249.707 447.029 248.844C448.454 247.974 450.073 247.539 451.888 247.539C453.005 247.539 454.046 247.7 455.012 248.022C455.984 248.337 456.857 248.803 457.631 249.419C458.405 250.029 459.046 250.776 459.552 251.659C460.059 252.536 460.402 253.539 460.58 254.669Z" fill="#0B92CB"/>
<path d="M209.22 140.127L62.29 218.817C46.81 227.107 31.38 235.477 15.83 243.617C12.17 245.527 8.83 248.237 4.6 248.977C4.49 249.567 4.03 249.637 3.6 249.677C2.20182 250.235 0.964559 251.132 0 252.287C0.94 252.347 1.36 252.407 1.78 252.407C20.68 252.407 39.58 252.407 58.48 252.407C60.1362 252.383 61.7343 251.794 63.01 250.737C78.3433 239.637 93.66 228.544 108.96 217.457L163.84 211.027L174.09 188.587L142.29 193.347C168.29 174.487 194.323 155.627 220.39 136.767C221.39 136.037 222.19 134.827 223.66 134.897C223.86 133.767 224.66 133.567 225.66 133.557C227.576 132.243 229.265 130.625 230.66 128.767C222.91 132.867 216.05 136.447 209.22 140.127Z" fill="#0B92CB"/>
</svg>
