<svg xmlns="http://www.w3.org/2000/svg" version="1.1" xmlns:xlink="http://www.w3.org/1999/xlink" width="512" height="512" x="0" y="0" viewBox="0 0 512 512" style="enable-background:new 0 0 512 512" xml:space="preserve" class="">
    <g>
        <path d="M202.047 184.656h-18.283c-20.028 0-36.264 16.236-36.264 36.264v54.358" style="stroke-width:15;stroke-linejoin:round;stroke-miterlimit:10;" fill="none" stroke="#565657" stroke-width="15" stroke-linejoin="round" stroke-miterlimit="10" data-original="#565657"></path>
        <path d="M305.698 158.942c6.202-9.234 9.824-20.347 9.824-32.307 0-32.045-25.977-58.022-58.022-58.022s-58.022 25.977-58.022 58.022 25.977 58.022 58.022 58.022c11.09 0 21.45-3.115 30.261-8.512" style="stroke-width:15;stroke-linejoin:round;stroke-miterlimit:10;" fill="none" stroke="#565657" stroke-width="15" stroke-linejoin="round" stroke-miterlimit="10" data-original="#565657"></path>
        <path d="M287.761 184.656h-85.715l50.891 99.202c1.857 3.62 7.03 3.625 8.893.008l25.93-50.321v-48.889zM257.5 206.684v1.094M257.5 232.417v1.094M34.239 369.242v98.7c0 5.523 4.477 10 10 10h423.523c5.523 0 10-4.477 10-10v-98.7H34.239zM64 275.278H39.239a5 5 0 0 0-5 5v43.964H189v-43.964a5 5 0 0 0-5-5H99M494.5 369.242h-477c-5.523 0-10-4.477-10-10v-25c0-5.523 4.477-10 10-10h477c5.523 0 10 4.477 10 10v25c0 5.523-4.477 10-10 10z" style="stroke-width:15;stroke-linecap:round;stroke-linejoin:round;stroke-miterlimit:10;" fill="none" stroke="#565657" stroke-width="15" stroke-linecap="round" stroke-linejoin="round" stroke-miterlimit="10" data-original="#565657"></path>
        <path d="M352 403.242H72.238a3 3 0 0 0-3 3v33.699a3 3 0 0 0 3 3h367.523a3 3 0 0 0 3-3v-33.699a3 3 0 0 0-3-3H387M405.261 269.942h62.5c5.523 0 10-4.477 10-10v-91c0-5.523-4.477-10-10-10H437M402 158.942H297.761c-5.523 0-10 4.477-10 10v91c0 5.523 4.477 10 10 10h62.5" style="stroke-width:15;stroke-linecap:round;stroke-linejoin:round;stroke-miterlimit:10;" fill="none" stroke="#565657" stroke-width="15" stroke-linecap="round" stroke-linejoin="round" stroke-miterlimit="10" data-original="#565657"></path>
        <path d="M405.261 324.242v-97.3a5 5 0 0 0-5-5h-35a5 5 0 0 0-5 5v97.3h45z" style="stroke-width:15;stroke-linecap:round;stroke-linejoin:round;stroke-miterlimit:10;" fill="none" stroke="#565657" stroke-width="15" stroke-linecap="round" stroke-linejoin="round" stroke-miterlimit="10" data-original="#565657"></path>
        <path d="M201.767 110.507c9.786 7.525 22.031 12.01 35.33 12.01 26.446 0 48.744-17.7 55.733-41.895M285.447 75.782a30.115 30.115 0 0 0 2.273-11.504c0-16.69-13.53-30.22-30.22-30.22-16.69 0-30.22 13.53-30.22 30.22 0 4.074.811 7.957 2.273 11.504" style="stroke-width:15;stroke-linejoin:round;stroke-miterlimit:10;" fill="none" stroke="#565657" stroke-width="15" stroke-linejoin="round" stroke-miterlimit="10" data-original="#565657"></path>
    </g>
</svg>
