<svg xmlns="http://www.w3.org/2000/svg" version="1.1" xmlns:xlink="http://www.w3.org/1999/xlink" width="512" height="512" x="0" y="0" viewBox="0 0 512 512" style="enable-background:new 0 0 512 512" xml:space="preserve" class=""><g><circle cx="319.962" cy="230.298" r="10.02" fill="#565657" opacity="1" data-original="#565657" class=""></circle><path d="M457.122 261.694h-1.955v-22.446c0-100.463-74.772-183.776-171.586-197.248a29.888 29.888 0 0 0 2.479-11.939C286.061 13.485 272.575 0 256 0s-30.061 13.485-30.061 30.061c0 4.241.888 8.277 2.479 11.939-96.813 13.472-171.585 96.785-171.585 197.248v22.446h-1.955c-16.575 0-30.061 13.485-30.061 30.061s13.485 30.061 30.061 30.061h99.917a32.6 32.6 0 0 0-1.949 6.305l-8.608 43.037c-26.35 14.45-30.317 42.882-30.725 55.46l-30.667 20.156c-4.759 3.127-5.932 9.837-2.506 14.395l35.232 46.865c3.178 4.227 9.303 5.237 13.671 2.246l67.332-46.108c36.917-13.065 54.124-38.862 63.861-58.2 10.879-7.443 60.751-41.392 94.014-61.124 8.191-4.859 12.412-13.846 11.117-23.033h91.552c16.575 0 30.061-13.485 30.061-30.061s-13.483-30.06-30.058-30.06zM245.98 30.061c0-5.525 4.495-10.02 10.02-10.02s10.02 4.495 10.02 10.02-4.495 10.02-10.02 10.02-10.02-4.495-10.02-10.02zM76.873 239.248c0-98.771 80.356-179.127 179.127-179.127 92.821 0 169.371 70.968 178.258 161.492H365.22c-5.534 0-10.02 4.486-10.02 10.02s4.486 10.02 10.02 10.02h69.907v20.04H76.873zm268.767 84.865c.416 1.518-.059 2.695-1.413 3.499-37.911 22.489-96.702 62.913-97.292 63.319a10.007 10.007 0 0 0-3.328 3.869c-12.977 26.665-29.885 42.352-54.823 50.864-.86.294-62.952 42.664-62.952 42.664l-23.057-30.67 26.312-17.295a10.02 10.02 0 0 0 4.484-9.176c-.026-.326-2.319-32.715 23.549-44.052a10.02 10.02 0 0 0 5.803-7.213l9.574-47.873c1.186-5.93 6.437-10.234 12.485-10.234 3.777 0 7.211 1.58 9.668 4.448 2.458 2.869 3.492 6.505 2.912 10.237l-.029.2-4.745 35.213a10.022 10.022 0 0 0 14.81 10.09l107.956-60.189h27.072c1.582.001 2.596.774 3.014 2.299zm-130.466-2.298h59.227l-59.078 32.938 2.059-15.284a32.738 32.738 0 0 0-2.208-17.654zm241.948-20.04H54.878c-5.525 0-10.02-4.495-10.02-10.02s4.495-10.02 10.02-10.02h402.243c5.525 0 10.02 4.495 10.02 10.02s-4.494 10.02-10.019 10.02z" fill="#565657" opacity="1" data-original="#565657" class=""></path><path d="M187.066 102.392c-31.238 14.588-55.824 41.536-67.455 73.934-1.869 5.209.837 10.947 6.045 12.817 1.119.401 2.261.592 3.385.592 4.109 0 7.963-2.548 9.432-6.637 9.838-27.406 30.64-50.204 57.073-62.548 5.014-2.342 7.18-8.304 4.839-13.319-2.342-5.015-8.305-7.181-13.319-4.839z" fill="#565657" opacity="1" data-original="#565657" class=""></path></g></svg>
