<svg xmlns="http://www.w3.org/2000/svg" version="1.1" xmlns:xlink="http://www.w3.org/1999/xlink" width="512" height="512" x="0" y="0" viewBox="0 0 512 512" style="enable-background:new 0 0 512 512" xml:space="preserve" class=""><g><path d="M440.806 435.05h-20.939a6 6 0 0 0-5.2 3L404.2 456.184a6 6 0 0 0 0 6l10.469 18.133a6 6 0 0 0 5.2 3h20.939a6 6 0 0 0 5.2-3l10.47-18.133a6 6 0 0 0 0-6L446 438.05a6 6 0 0 0-5.194-3Zm-3.464 36.267h-14.011l-7-12.133 7-12.134h14.011l7 12.134ZM291.433 296.482a202.222 202.222 0 0 1-49.933-19.794l-12.471-6.853v-5.642a68.139 68.139 0 0 0 21.91-40.106l4.446-28.361a18.4 18.4 0 0 0 9.129-33.11 120.762 120.762 0 0 0 4.8-18.992h2.051a17.6 17.6 0 0 0 5.427-34.35A104.241 104.241 0 0 0 256.7 51.7a94.814 94.814 0 0 0-46.085-33.763l.655-6.318A6 6 0 0 0 205.3 5h-45.579a6 6 0 0 0-5.968 6.619l.655 6.319a94.761 94.761 0 0 0-46.089 33.846 104.537 104.537 0 0 0-20.073 57.487 17.6 17.6 0 0 0 5.417 34.353h1.546a93.469 93.469 0 0 0 4.446 14.525l2.274 5.717a18.4 18.4 0 0 0 10.642 31.86l4.446 28.361a68.09 68.09 0 0 0 19.131 37.479v10.351l-12.484 6.269a5.964 5.964 0 0 0-2.1 1.055l-1.226.615a214.209 214.209 0 0 1-46.75 16.626A83.807 83.807 0 0 0 9.151 378.27V501a6 6 0 0 0 6 6h334.718a6 6 0 0 0 6-6V378.27a83.807 83.807 0 0 0-64.436-81.788ZM68.985 495H21.151V378.27a71.824 71.824 0 0 1 47.834-67.911Zm81.661-462.716a76.223 76.223 0 0 1 11.785-4.221 6 6 0 0 0 4.426-6.417L166.375 17h32.27l-.482 4.646a6 6 0 0 0 4.426 6.417 76.684 76.684 0 0 1 11.785 4.215v8.2a48.57 48.57 0 0 1-30.915 45.232 48.433 48.433 0 0 1-32.813-45.932ZM117.97 58.915a85.277 85.277 0 0 1 20.676-19.907v.77a60.409 60.409 0 0 0 41.82 57.584l1.243.4a5.988 5.988 0 0 0 3.808-.032 60.569 60.569 0 0 0 40.857-57.261v-1.483a85.158 85.158 0 0 1 20.68 19.857 92.078 92.078 0 0 1 17.659 49.566h-164.4a92.4 92.4 0 0 1 17.657-49.494Zm-24.307 72.709a5.608 5.608 0 1 1 0-11.215h177.694a5.608 5.608 0 1 1 0 11.215h-21.321a.192.192 0 0 0-.024 0H93.663Zm163.469 12a106.247 106.247 0 0 1-.9 4.287v-4.287Zm-145.414 0v12.383l-.913-2.294a81.433 81.433 0 0 1-3.263-10.089Zm17.155 78.605-5.227-33.342a6 6 0 0 0-5.928-5.071h-3.313a6.424 6.424 0 1 1 0-12.847h3.313a6 6 0 0 0 6-6v-21.345h120.516v21.345a6 6 0 0 0 6 6h3.15a5.942 5.942 0 0 0 3.468 1.114c.092 0 .183-.017.275-.021a6.421 6.421 0 0 1-3.58 11.754h-3.313a6 6 0 0 0-5.927 5.071l-5.227 33.342a55.777 55.777 0 0 1-110.207 0Zm19.275 51.655v-2.772c1.284.8 2.594 1.567 3.937 2.283a67.669 67.669 0 0 0 63.782 0c.39-.208.773-.425 1.158-.64v24.093a47.01 47.01 0 0 1-68.877 0v-19.739a5.957 5.957 0 0 0 0-3.225Zm-16.9 13.921 4.9-2.46v13.778a6 6 0 0 0 1.423 3.877 59.007 59.007 0 0 0 90.031 0 6 6 0 0 0 1.423-3.879v-15.6l4.745 2.607v45.55a51.26 51.26 0 0 1-102.52 0ZM235.85 495h-96.706v-52.557a122.946 122.946 0 0 0 96.706.164Zm48.185 0H247.85v-61.866a6 6 0 0 0-8.779-5.318 110.946 110.946 0 0 1-103.129-.191 6 6 0 0 0-8.8 5.308V495H80.985V306.989a228.155 228.155 0 0 0 38.265-13.321v38.016a63.26 63.26 0 0 0 126.52 0v-39.249a210.318 210.318 0 0 0 38.265 14.542Zm59.834 0h-47.834V310.36a71.822 71.822 0 0 1 47.834 67.91Z" fill="#565657" opacity="1" data-original="#565657" class=""></path><path d="M182.51 349.135a7.909 7.909 0 1 0-7.908-7.908 7.917 7.917 0 0 0 7.908 7.908ZM182.51 373.948a7.909 7.909 0 1 0-7.908-7.909 7.917 7.917 0 0 0 7.908 7.909ZM501.116 197.526l-.244-.261a6 6 0 0 0-9.812 1.553l-29.56 29.56-38.278-7.109-7.109-38.279 30.587-30.583a6 6 0 0 0 0-8.489l-.26-.26a6 6 0 0 0-3.682-1.728 66.29 66.29 0 0 0-42.172 121.686V421.8a47.817 47.817 0 1 0 59.516 0V269.887a66.216 66.216 0 0 0 42.549-67.2 6 6 0 0 0-1.535-5.161Zm-34.963 261.658a35.817 35.817 0 1 1-35.817-35.816 35.857 35.857 0 0 1 35.817 35.816ZM412.578 414.8V269.725a66.208 66.208 0 0 0 35.516 3.453V414.8a47.645 47.645 0 0 0-35.516 0Zm62.368-168.472a54.295 54.295 0 1 1-47.159-91.984l-22.393 22.393a6 6 0 0 0-1.656 5.339l8.439 45.434a6 6 0 0 0 4.8 4.8l45.434 8.439a6 6 0 0 0 5.338-1.656l22.4-22.4a54.049 54.049 0 0 1-15.203 29.636ZM172.8 64.947h21.526a6 6 0 0 0 0-12H172.8a6 6 0 0 0 0 12ZM172.8 45.1h21.526a6 6 0 0 0 0-12H172.8a6 6 0 0 0 0 12Z" fill="#565657" opacity="1" data-original="#565657" class=""></path></g></svg>
